<?xml version="1.0" encoding="utf-8"?>
<!-- Generator: Adobe Illustrator 15.0.0, SVG Export Plug-In . SVG Version: 6.00 Build 0)  -->
<!DOCTYPE svg PUBLIC "-//W3C//DTD SVG 1.1//EN" "http://www.w3.org/Graphics/SVG/1.1/DTD/svg11.dtd">
<svg version="1.1" id="图层_1" xmlns="http://www.w3.org/2000/svg" xmlns:xlink="http://www.w3.org/1999/xlink" x="0px" y="0px"
	 width="50px" height="50px" viewBox="0 0 50 50" enable-background="new 0 0 50 50" xml:space="preserve">
<line fill="none" stroke="#FFFFFF" stroke-miterlimit="10" x1="25.75" y1="8.5" x2="1.25" y2="20.5"/>
<line fill="none" stroke="#FFFFFF" stroke-miterlimit="10" x1="25.25" y1="8.5" x2="49.75" y2="20.5"/>
<path fill="none" stroke="#FFFFFF" stroke-miterlimit="10" d="M4.5,18.789c0,5.986,0,11.973,0,17.958"/>
<path fill="none" stroke="#FFFFFF" stroke-miterlimit="10" d="M46.5,18.789c0,5.474,0,10.947,0,16.423"/>
<line fill="none" stroke="#FFFFFF" stroke-miterlimit="10" x1="4.813" y1="25.394" x2="46.5" y2="25.394"/>
<rect x="8.5" y="21.289" fill="none" stroke="#FFFFFF" stroke-miterlimit="10" width="6" height="3"/>
<rect x="22.5" y="21.289" fill="none" stroke="#FFFFFF" stroke-miterlimit="10" width="6" height="3"/>
<rect x="35.5" y="21.289" fill="none" stroke="#FFFFFF" stroke-miterlimit="10" width="6" height="3"/>
<line fill="none" stroke="#FFFFFF" stroke-miterlimit="10" x1="17.815" y1="29.282" x2="19.42" y2="29.282"/>
<line fill="none" stroke="#FFFFFF" stroke-miterlimit="10" x1="19.42" y1="29.282" x2="19.42" y2="31.462"/>
<line fill="none" stroke="#FFFFFF" stroke-miterlimit="10" x1="19.42" y1="31.462" x2="21.542" y2="31.462"/>
<line fill="none" stroke="#FFFFFF" stroke-miterlimit="10" x1="21.542" y1="31.462" x2="21.542" y2="29.282"/>
<line fill="none" stroke="#FFFFFF" stroke-miterlimit="10" x1="21.542" y1="29.282" x2="23.167" y2="29.282"/>
<line fill="none" stroke="#FFFFFF" stroke-miterlimit="10" x1="23.167" y1="29.282" x2="23.167" y2="33.296"/>
<line fill="none" stroke="#FFFFFF" stroke-miterlimit="10" x1="23.67" y1="33.296" x2="17.33" y2="33.296"/>
<line fill="none" stroke="#FFFFFF" stroke-miterlimit="10" x1="17.815" y1="33.296" x2="17.815" y2="29.282"/>
<line fill="none" stroke="#FFFFFF" stroke-miterlimit="10" x1="19.191" y1="32.264" x2="21.949" y2="32.264"/>
<line fill="none" stroke="#FFFFFF" stroke-miterlimit="10" x1="22.355" y1="29.512" x2="22.355" y2="32.837"/>
<line fill="none" stroke="#FFFFFF" stroke-miterlimit="10" x1="18.628" y1="33.296" x2="18.618" y2="29.971"/>
<line fill="none" stroke="#FFFFFF" stroke-miterlimit="10" x1="18.117" y1="31.633" x2="22.355" y2="31.633"/>
<line fill="none" stroke="#FFFFFF" stroke-miterlimit="10" x1="18.628" y1="30.498" x2="18.628" y2="29.512"/>
<line fill="none" stroke="#FFFFFF" stroke-miterlimit="10" x1="18.618" y1="32.665" x2="20.236" y2="32.837"/>
<line fill="none" stroke="#FFFFFF" stroke-miterlimit="10" x1="18.628" y1="31.977" x2="20.236" y2="32.837"/>
<line fill="none" stroke="#FFFFFF" stroke-miterlimit="10" x1="21.949" y1="32.264" x2="21.098" y2="33.296"/>
<line fill="none" stroke="#FFFFFF" stroke-miterlimit="10" x1="19.698" y1="32.779" x2="21.098" y2="32.837"/>
<line fill="none" stroke="#FFFFFF" stroke-miterlimit="10" x1="27.814" y1="29.282" x2="29.42" y2="29.282"/>
<line fill="none" stroke="#FFFFFF" stroke-miterlimit="10" x1="29.42" y1="29.282" x2="29.42" y2="31.462"/>
<line fill="none" stroke="#FFFFFF" stroke-miterlimit="10" x1="29.42" y1="31.462" x2="31.541" y2="31.462"/>
<line fill="none" stroke="#FFFFFF" stroke-miterlimit="10" x1="31.541" y1="31.462" x2="31.541" y2="29.282"/>
<line fill="none" stroke="#FFFFFF" stroke-miterlimit="10" x1="31.541" y1="29.282" x2="33.168" y2="29.282"/>
<line fill="none" stroke="#FFFFFF" stroke-miterlimit="10" x1="33.168" y1="29.282" x2="33.168" y2="33.296"/>
<line fill="none" stroke="#FFFFFF" stroke-miterlimit="10" x1="33.67" y1="33.296" x2="27.33" y2="33.296"/>
<line fill="none" stroke="#FFFFFF" stroke-miterlimit="10" x1="27.814" y1="33.296" x2="27.814" y2="29.282"/>
<line fill="none" stroke="#FFFFFF" stroke-miterlimit="10" x1="29.191" y1="32.264" x2="31.949" y2="32.264"/>
<line fill="none" stroke="#FFFFFF" stroke-miterlimit="10" x1="32.355" y1="29.512" x2="32.355" y2="32.837"/>
<line fill="none" stroke="#FFFFFF" stroke-miterlimit="10" x1="28.628" y1="33.296" x2="28.617" y2="29.971"/>
<line fill="none" stroke="#FFFFFF" stroke-miterlimit="10" x1="28.117" y1="31.633" x2="32.355" y2="31.633"/>
<line fill="none" stroke="#FFFFFF" stroke-miterlimit="10" x1="28.628" y1="30.498" x2="28.628" y2="29.512"/>
<line fill="none" stroke="#FFFFFF" stroke-miterlimit="10" x1="28.617" y1="32.665" x2="30.236" y2="32.837"/>
<line fill="none" stroke="#FFFFFF" stroke-miterlimit="10" x1="28.628" y1="31.977" x2="30.236" y2="32.837"/>
<line fill="none" stroke="#FFFFFF" stroke-miterlimit="10" x1="31.949" y1="32.264" x2="31.098" y2="33.296"/>
<line fill="none" stroke="#FFFFFF" stroke-miterlimit="10" x1="29.697" y1="32.779" x2="31.098" y2="32.837"/>
<line fill="none" stroke="#FFFFFF" stroke-miterlimit="10" x1="12.815" y1="35.782" x2="14.42" y2="35.782"/>
<line fill="none" stroke="#FFFFFF" stroke-miterlimit="10" x1="14.42" y1="35.782" x2="14.42" y2="37.962"/>
<line fill="none" stroke="#FFFFFF" stroke-miterlimit="10" x1="14.42" y1="37.962" x2="16.541" y2="37.962"/>
<line fill="none" stroke="#FFFFFF" stroke-miterlimit="10" x1="16.541" y1="37.962" x2="16.541" y2="35.782"/>
<line fill="none" stroke="#FFFFFF" stroke-miterlimit="10" x1="16.541" y1="35.782" x2="18.168" y2="35.782"/>
<line fill="none" stroke="#FFFFFF" stroke-miterlimit="10" x1="18.168" y1="35.782" x2="18.168" y2="39.796"/>
<line fill="none" stroke="#FFFFFF" stroke-miterlimit="10" x1="18.67" y1="39.796" x2="12.33" y2="39.796"/>
<line fill="none" stroke="#FFFFFF" stroke-miterlimit="10" x1="12.815" y1="39.796" x2="12.815" y2="35.782"/>
<line fill="none" stroke="#FFFFFF" stroke-miterlimit="10" x1="14.191" y1="38.764" x2="16.949" y2="38.764"/>
<line fill="none" stroke="#FFFFFF" stroke-miterlimit="10" x1="17.355" y1="36.012" x2="17.355" y2="39.337"/>
<line fill="none" stroke="#FFFFFF" stroke-miterlimit="10" x1="13.628" y1="39.796" x2="13.618" y2="36.471"/>
<line fill="none" stroke="#FFFFFF" stroke-miterlimit="10" x1="13.117" y1="38.133" x2="17.355" y2="38.133"/>
<line fill="none" stroke="#FFFFFF" stroke-miterlimit="10" x1="13.628" y1="36.998" x2="13.628" y2="36.012"/>
<line fill="none" stroke="#FFFFFF" stroke-miterlimit="10" x1="13.618" y1="39.165" x2="15.236" y2="39.337"/>
<line fill="none" stroke="#FFFFFF" stroke-miterlimit="10" x1="13.628" y1="38.477" x2="15.236" y2="39.337"/>
<line fill="none" stroke="#FFFFFF" stroke-miterlimit="10" x1="16.949" y1="38.764" x2="16.098" y2="39.796"/>
<line fill="none" stroke="#FFFFFF" stroke-miterlimit="10" x1="14.698" y1="39.279" x2="16.098" y2="39.337"/>
<line fill="none" stroke="#FFFFFF" stroke-miterlimit="10" x1="22.815" y1="35.782" x2="24.42" y2="35.782"/>
<line fill="none" stroke="#FFFFFF" stroke-miterlimit="10" x1="24.42" y1="35.782" x2="24.42" y2="37.962"/>
<line fill="none" stroke="#FFFFFF" stroke-miterlimit="10" x1="24.42" y1="37.962" x2="26.541" y2="37.962"/>
<line fill="none" stroke="#FFFFFF" stroke-miterlimit="10" x1="26.541" y1="37.962" x2="26.541" y2="35.782"/>
<line fill="none" stroke="#FFFFFF" stroke-miterlimit="10" x1="26.541" y1="35.782" x2="28.168" y2="35.782"/>
<line fill="none" stroke="#FFFFFF" stroke-miterlimit="10" x1="28.168" y1="35.782" x2="28.168" y2="39.796"/>
<line fill="none" stroke="#FFFFFF" stroke-miterlimit="10" x1="28.67" y1="39.796" x2="22.33" y2="39.796"/>
<line fill="none" stroke="#FFFFFF" stroke-miterlimit="10" x1="22.815" y1="39.796" x2="22.815" y2="35.782"/>
<line fill="none" stroke="#FFFFFF" stroke-miterlimit="10" x1="24.191" y1="38.764" x2="26.949" y2="38.764"/>
<line fill="none" stroke="#FFFFFF" stroke-miterlimit="10" x1="27.355" y1="36.012" x2="27.355" y2="39.337"/>
<line fill="none" stroke="#FFFFFF" stroke-miterlimit="10" x1="23.628" y1="39.796" x2="23.618" y2="36.471"/>
<line fill="none" stroke="#FFFFFF" stroke-miterlimit="10" x1="23.117" y1="38.133" x2="27.355" y2="38.133"/>
<line fill="none" stroke="#FFFFFF" stroke-miterlimit="10" x1="23.628" y1="36.998" x2="23.628" y2="36.012"/>
<line fill="none" stroke="#FFFFFF" stroke-miterlimit="10" x1="23.618" y1="39.165" x2="25.236" y2="39.337"/>
<line fill="none" stroke="#FFFFFF" stroke-miterlimit="10" x1="23.628" y1="38.477" x2="25.236" y2="39.337"/>
<line fill="none" stroke="#FFFFFF" stroke-miterlimit="10" x1="26.949" y1="38.764" x2="26.098" y2="39.796"/>
<line fill="none" stroke="#FFFFFF" stroke-miterlimit="10" x1="24.698" y1="39.279" x2="26.098" y2="39.337"/>
<line fill="none" stroke="#FFFFFF" stroke-miterlimit="10" x1="32.814" y1="35.782" x2="34.42" y2="35.782"/>
<line fill="none" stroke="#FFFFFF" stroke-miterlimit="10" x1="34.42" y1="35.782" x2="34.42" y2="37.962"/>
<line fill="none" stroke="#FFFFFF" stroke-miterlimit="10" x1="34.42" y1="37.962" x2="36.541" y2="37.962"/>
<line fill="none" stroke="#FFFFFF" stroke-miterlimit="10" x1="36.541" y1="37.962" x2="36.541" y2="35.782"/>
<line fill="none" stroke="#FFFFFF" stroke-miterlimit="10" x1="36.541" y1="35.782" x2="38.168" y2="35.782"/>
<line fill="none" stroke="#FFFFFF" stroke-miterlimit="10" x1="38.168" y1="35.782" x2="38.168" y2="39.796"/>
<line fill="none" stroke="#FFFFFF" stroke-miterlimit="10" x1="38.67" y1="39.796" x2="32.33" y2="39.796"/>
<line fill="none" stroke="#FFFFFF" stroke-miterlimit="10" x1="32.814" y1="39.796" x2="32.814" y2="35.782"/>
<line fill="none" stroke="#FFFFFF" stroke-miterlimit="10" x1="34.191" y1="38.764" x2="36.949" y2="38.764"/>
<line fill="none" stroke="#FFFFFF" stroke-miterlimit="10" x1="37.355" y1="36.012" x2="37.355" y2="39.337"/>
<line fill="none" stroke="#FFFFFF" stroke-miterlimit="10" x1="33.628" y1="39.796" x2="33.617" y2="36.471"/>
<line fill="none" stroke="#FFFFFF" stroke-miterlimit="10" x1="33.117" y1="38.133" x2="37.355" y2="38.133"/>
<line fill="none" stroke="#FFFFFF" stroke-miterlimit="10" x1="33.628" y1="36.998" x2="33.628" y2="36.012"/>
<line fill="none" stroke="#FFFFFF" stroke-miterlimit="10" x1="33.617" y1="39.165" x2="35.236" y2="39.337"/>
<line fill="none" stroke="#FFFFFF" stroke-miterlimit="10" x1="33.628" y1="38.477" x2="35.236" y2="39.337"/>
<line fill="none" stroke="#FFFFFF" stroke-miterlimit="10" x1="36.949" y1="38.764" x2="36.098" y2="39.796"/>
<line fill="none" stroke="#FFFFFF" stroke-miterlimit="10" x1="34.697" y1="39.279" x2="36.098" y2="39.337"/>
<line fill="none" stroke="#FFFFFF" stroke-miterlimit="10" x1="4.5" y1="19.32" x2="46.313" y2="19.32"/>
<line fill="none" stroke="#FFFFFF" stroke-miterlimit="10" x1="4.5" y1="20.102" x2="46.5" y2="20.102"/>
<line fill="none" stroke="#FFFFFF" stroke-miterlimit="10" x1="4.5" y1="20.82" x2="46.5" y2="20.82"/>
<line fill="none" stroke="#FFFFFF" stroke-miterlimit="10" x1="4.5" y1="24.789" x2="46.313" y2="24.789"/>
<path fill="none" stroke="#FFFFFF" stroke-miterlimit="10" d="M5.5,18.789c0,6.902,0,13.805,0,20.707"/>
<line fill="none" stroke="#FFFFFF" stroke-miterlimit="10" x1="6.5" y1="18.789" x2="6.5" y2="40.789"/>
<g>
	<line fill="none" stroke="#FFFFFF" stroke-miterlimit="10" x1="7.5" y1="18.789" x2="7.5" y2="40.789"/>
</g>
<line fill="none" stroke="#FFFFFF" stroke-miterlimit="10" x1="8.5" y1="18.789" x2="8.5" y2="40.789"/>
<line fill="none" stroke="#FFFFFF" stroke-miterlimit="10" x1="1.5" y1="19.989" x2="1.5" y2="22.989"/>
<line fill="none" stroke="#FFFFFF" stroke-miterlimit="10" x1="43" y1="18.789" x2="43" y2="40.789"/>
<line fill="none" stroke="#FFFFFF" stroke-miterlimit="10" x1="44" y1="18.789" x2="44" y2="40.789"/>
<g>
	<path fill="none" stroke="#FFFFFF" stroke-miterlimit="10" d="M45,18.789c0,6.987,0,13.975,0,20.961"/>
</g>
<path fill="none" stroke="#FFFFFF" stroke-miterlimit="10" d="M46,18.789c0,6.333,0,12.666,0,18.999"/>
<line fill="none" stroke="#FFFFFF" stroke-miterlimit="10" x1="42.5" y1="18.789" x2="42.5" y2="40.789"/>
<line fill="none" stroke="#FFFFFF" stroke-miterlimit="10" x1="5.5" y1="18.418" x2="45" y2="18.418"/>
<line fill="none" stroke="#FFFFFF" stroke-miterlimit="10" x1="7.171" y1="17.6" x2="43" y2="17.6"/>
<line fill="none" stroke="#FFFFFF" stroke-miterlimit="10" x1="8.953" y1="16.727" x2="41.219" y2="16.727"/>
<line fill="none" stroke="#FFFFFF" stroke-miterlimit="10" x1="10.937" y1="15.755" x2="39.594" y2="15.755"/>
<line fill="none" stroke="#FFFFFF" stroke-miterlimit="10" x1="12.815" y1="14.835" x2="37.354" y2="14.835"/>
<line fill="none" stroke="#FFFFFF" stroke-miterlimit="10" x1="14.752" y1="13.887" x2="35.25" y2="13.887"/>
<line fill="none" stroke="#FFFFFF" stroke-miterlimit="10" x1="16.541" y1="13.011" x2="33.969" y2="13.011"/>
<line fill="none" stroke="#FFFFFF" stroke-miterlimit="10" x1="18.794" y1="11.907" x2="31.541" y2="11.907"/>
<line fill="none" stroke="#FFFFFF" stroke-miterlimit="10" x1="18.117" y1="12.508" x2="32.814" y2="12.508"/>
<line fill="none" stroke="#FFFFFF" stroke-miterlimit="10" x1="20.57" y1="11.164" x2="30.57" y2="11.164"/>
<line fill="none" stroke="#FFFFFF" stroke-miterlimit="10" x1="22.157" y1="10.26" x2="28.617" y2="10.26"/>
<line fill="none" stroke="#FFFFFF" stroke-miterlimit="10" x1="23.67" y1="9.519" x2="26.688" y2="9.519"/>
<line fill="none" stroke="#FFFFFF" stroke-miterlimit="10" x1="31.949" y1="12.508" x2="45.625" y2="19.102"/>
<line fill="none" stroke="#FFFFFF" stroke-miterlimit="10" x1="49.5" y1="19.989" x2="49.5" y2="22.989"/>
<line fill="none" stroke="#FFFFFF" stroke-miterlimit="10" x1="14.698" y1="21.489" x2="22.33" y2="21.489"/>
<line fill="none" stroke="#FFFFFF" stroke-miterlimit="10" x1="14.698" y1="22.289" x2="22.354" y2="22.289"/>
<line fill="none" stroke="#FFFFFF" stroke-miterlimit="10" x1="14.698" y1="23.195" x2="22.354" y2="23.195"/>
<line fill="none" stroke="#FFFFFF" stroke-miterlimit="10" x1="14.5" y1="23.914" x2="22.354" y2="23.914"/>
<line fill="none" stroke="#FFFFFF" stroke-miterlimit="10" x1="28.67" y1="21.695" x2="35.48" y2="21.695"/>
<line fill="none" stroke="#FFFFFF" stroke-miterlimit="10" x1="28.623" y1="22.633" x2="35.396" y2="22.633"/>
<line fill="none" stroke="#FFFFFF" stroke-miterlimit="10" x1="28.67" y1="23.539" x2="35.25" y2="23.539"/>
<line fill="none" stroke="#FFFFFF" stroke-miterlimit="10" x1="28.5" y1="24.289" x2="35.5" y2="24.289"/>
<line fill="none" stroke="#FFFFFF" stroke-miterlimit="10" x1="2.375" y1="20.102" x2="4.813" y2="20.102"/>
<line fill="none" stroke="#FFFFFF" stroke-miterlimit="10" x1="1.5" y1="20.82" x2="4.969" y2="20.82"/>
<line fill="none" stroke="#FFFFFF" stroke-miterlimit="10" x1="1.719" y1="21.695" x2="4.5" y2="21.695"/>
<line fill="none" stroke="#FFFFFF" stroke-miterlimit="10" x1="1.719" y1="22.489" x2="4.969" y2="22.489"/>
<line fill="none" stroke="#FFFFFF" stroke-miterlimit="10" x1="45.281" y1="20.5" x2="48.75" y2="20.5"/>
<line fill="none" stroke="#FFFFFF" stroke-miterlimit="10" x1="46.313" y1="21.695" x2="49.25" y2="21.695"/>
<line fill="none" stroke="#FFFFFF" stroke-miterlimit="10" x1="46.5" y1="20.82" x2="49.25" y2="20.82"/>
<line fill="none" stroke="#FFFFFF" stroke-miterlimit="10" x1="46" y1="19.852" x2="47.781" y2="19.852"/>
<line fill="none" stroke="#FFFFFF" stroke-miterlimit="10" x1="46.5" y1="22.489" x2="49.25" y2="22.489"/>
<path fill="none" stroke="#FFFFFF" stroke-miterlimit="10" d="M4.502,36.656c0,2.004,0.741,3.625,1.656,3.625"/>
<line fill="none" stroke="#FFFFFF" stroke-miterlimit="10" x1="5.33" y1="39.165" x2="6.158" y2="39.796"/>
<path fill="none" stroke="#FFFFFF" stroke-miterlimit="10" d="M46.498,36.656c0,2.004-0.741,3.625-1.656,3.625"/>
<line fill="none" stroke="#FFFFFF" stroke-miterlimit="10" x1="44" y1="40.164" x2="45.139" y2="40.164"/>
<line fill="none" stroke="#FFFFFF" stroke-miterlimit="10" x1="46.5" y1="34.352" x2="46.5" y2="36.656"/>
<line fill="none" stroke="#FFFFFF" stroke-miterlimit="10" x1="44.4" y1="40.789" x2="44.4" y2="39.148"/>
<line fill="none" stroke="#FFFFFF" stroke-miterlimit="10" x1="45.67" y1="37.148" x2="45.67" y2="39.148"/>
<line fill="none" stroke="#FFFFFF" stroke-miterlimit="10" x1="45.67" y1="36.656" x2="46.781" y2="36.656"/>
<line fill="none" stroke="#FFFFFF" stroke-miterlimit="10" x1="10.339" y1="16.048" x2="38.67" y2="15.805"/>
<line fill="none" stroke="#FFFFFF" stroke-miterlimit="10" x1="28.168" y1="22.289" x2="35.57" y2="22.289"/>
<line fill="none" stroke="#FFFFFF" stroke-miterlimit="10" x1="6.158" y1="20.5" x2="6.158" y2="39.251"/>
<line fill="none" stroke="#FFFFFF" stroke-miterlimit="10" x1="7.5" y1="40.281" x2="7.5" y2="20.82"/>
<line fill="none" stroke="#FFFFFF" stroke-miterlimit="10" x1="42.5" y1="20.5" x2="42.5" y2="24.789"/>
<line fill="none" stroke="#FFFFFF" stroke-miterlimit="10" x1="45.281" y1="24.789" x2="45.281" y2="19.852"/>
<line fill="none" stroke="#FFFFFF" stroke-miterlimit="10" x1="44" y1="24.789" x2="44" y2="40.789"/>
<line fill="none" stroke="#FFFFFF" stroke-miterlimit="10" x1="45.281" y1="37.962" x2="45.281" y2="21.695"/>
<path fill="none" stroke="#FFFFFF" stroke-miterlimit="10" d="M19.216,18.016c-0.044-0.621,1.119-1.133,1.604-1.317
	c0.745-0.284,1.294-0.157,2.011,0.159c0.516,0.228,1.18,0.431,1.271,1.043c0.099,0.667-0.64,1.036-1.155,1.144
	c-1.059,0.221-3.06-0.788-2.643-2.122c0.281-0.898,3.032-1.035,3.386-0.17c0.228,0.556-0.489,0.754-0.92,0.747"/>
<path fill="none" stroke="#FFFFFF" stroke-miterlimit="10" d="M12.163,16.697c2.206-1.126,4.94-1.899,7.417-2.02
	c1.309-0.063,3.035,0.132,4.279-0.274"/>
<path fill="none" stroke="#FFFFFF" stroke-miterlimit="10" d="M17.094,17.443c1.677-0.711,3.706-0.631,5.502-0.631
	c1.549,0,3.098,0,4.647,0"/>
<path fill="none" stroke="#FFFFFF" stroke-miterlimit="10" d="M33.148,17.099c0.666-0.026,1.343,0.125,1.949,0.287"/>
<path fill="none" stroke="#FFFFFF" stroke-miterlimit="10" d="M32.289,16.353c-0.773-0.365-1.479-0.98-2.28-1.347
	c-1.021-0.468-2.532-1.152-3.69-1.073c-1.344,0.092-2.616,1.219-3.926,1.574c-0.853,0.231-2.108,0.55-3.004,0.445"/>
<path fill="none" stroke="#FFFFFF" stroke-miterlimit="10" d="M24.548,12.97c0.329-0.07,0.698-0.079,1.024-0.036
	c0.044,0.966-0.402,1.501-0.896,2.305c-0.286,0.464-0.586,1.07-0.988,1.401"/>
<path fill="none" stroke="#FFFFFF" stroke-miterlimit="10" d="M22.427,17.271c-0.589,0.429-1.234,0.344-1.968,0.344
	c-0.646,0-2.163,0.236-2.562-0.401"/>
<path fill="none" stroke="#FFFFFF" stroke-miterlimit="10" d="M19.617,14.92c0.825-0.007,1.747-0.347,2.534-0.576
	c0.72-0.209,1.58-0.145,2.282-0.399"/>
<path fill="none" stroke="#FFFFFF" stroke-miterlimit="10" d="M25.867,12.454c-0.075,0.561-0.499,1.174-0.78,1.701
	c-0.333,0.622-0.579,1.296-0.941,1.9c-0.448,0.746-0.962,0.981-1.819,1.112c-0.527,0.081-1.592,0.353-1.894-0.126
	c-0.486-0.771,0.23-1.774,0.813-2.175c1.989-1.369,5.355-1.023,7.527-0.351c1.104,0.341,2.15,0.807,3.121,1.4
	c0.482,0.295,1.347,0.672,1.369,1.311c0.035,0.986-2.049,2.231-2.768,1.563c-0.389-0.36-0.46-1.435-0.387-1.919
	c0.139-0.921,0.945-1.25,1.754-1.436c1.219-0.28,3.847,0.086,3.521,1.897c-0.15,0.844-1.271,1.222-2.055,1.306
	c-0.855,0.092-1.191,0.101-1.214-0.777c-0.041-1.711,1.878-3.129,3.567-2.644c0.688,0.198,1.119,1.073,1.531,1.591
	c0.525,0.658,1.17,1.461,0.1,1.957c-0.389,0.18-0.826,0.259-1.254,0.3c-0.248,0.024-1.168,0.247-1.422,0.1
	c-0.777-0.449,0.762-1.51,1.215-1.677c0.73-0.269,1.814-0.607,2.561-0.229c0.393,0.198,1.188,1.162,0.921,1.674
	c-0.213,0.41-1.88,0.547-1.661-0.087c0.198-0.576,1.651-0.631,2.139-0.657c0.437-0.022,1.822-0.211,2.026,0.357
	c0.208,0.58-1.063,0.939-1.461,0.813c0.086-0.53,1.073-1.935,1.772-1.691c0.191,0.066,0.35,0.63,0.289,0.853
	c-0.114,0.423-0.563,0.489-0.948,0.531c-1.849,0.198-2.661-1.832-3.927-2.798c-2.127-1.625-5.119-1.793-7.58-2.549
	c-1.073-0.33-2.229-0.56-3.33-0.734c-0.759-0.12-2.12-0.386-2.854-0.115"/>
<line fill="none" stroke="#FFFFFF" stroke-miterlimit="10" x1="6.5" y1="18.789" x2="44" y2="19.384"/>
<line fill="none" stroke="#FFFFFF" stroke-miterlimit="10" x1="8.034" y1="17.657" x2="39.813" y2="18.188"/>
<line fill="none" stroke="#FFFFFF" stroke-miterlimit="10" x1="12.33" y1="15.755" x2="36.098" y2="15.919"/>
<line fill="none" stroke="#FFFFFF" stroke-miterlimit="10" x1="16.949" y1="13.945" x2="33.969" y2="14.404"/>
<line fill="none" stroke="#FFFFFF" stroke-miterlimit="10" x1="19.388" y1="12.225" x2="32.289" y2="13.011"/>
<line fill="none" stroke="#FFFFFF" stroke-miterlimit="10" x1="22.33" y1="11.164" x2="30.5" y2="11.907"/>
<line fill="none" stroke="#FFFFFF" stroke-miterlimit="10" x1="24.504" y1="10.26" x2="27.814" y2="10.26"/>
<line fill="none" stroke="#FFFFFF" stroke-miterlimit="10" x1="24.632" y1="9.519" x2="26.415" y2="9.519"/>
<line fill="none" stroke="#FFFFFF" stroke-miterlimit="10" x1="25.387" y1="9.816" x2="3.234" y2="20.82"/>
<line fill="none" stroke="#FFFFFF" stroke-miterlimit="10" x1="25.387" y1="9.816" x2="46.227" y2="20.5"/>
<line fill="none" stroke="#FFFFFF" stroke-miterlimit="10" x1="47.016" y1="21.055" x2="21.663" y2="17.885"/>
</svg>
